mtllib model_0.mtl
o model_0
v 290.9351806640625 1358.3720703125 4.412152290344238 
v 291.31109619140625 1358.56689453125 3.639904022216797 
v 297.93780517578125 1356.447021484375 4.400477886199951 
v 297.93780517578125 1356.447021484375 4.400477886199951 
v 290.9351806640625 1358.3720703125 4.412152290344238 
v 291.31109619140625 1358.56689453125 3.639904022216797 
v -287.6911926269531 1356.447021484375 4.400477886199951 
v -281.0644836425781 1358.56689453125 3.639904022216797 
v -280.6885681152344 1358.3720703125 4.412152290344238 
v -280.6885681152344 1358.3720703125 4.412152290344238 
v -287.6911926269531 1356.447021484375 4.400477886199951 
v -281.0644836425781 1358.56689453125 3.639904022216797 
v 220.41107177734375 1406.426025390625 2.850184440612793 
v 220.50439453125 1406.3359375 2.850189447402954 
v 220.466796875 1406.318115234375 2.91922664642334 
v 220.56011962890625 1406.22705078125 2.919231414794922 
v 220.5225830078125 1406.208984375 2.9882686138153076 
v 221.02130126953125 1405.780029296875 2.919083833694458 
v 223.95611572265625 1402.93505859375 2.917067527770996 
v 224.45477294921875 1402.506103515625 2.8478827476501465 
v 227.38958740234375 1399.660888671875 2.8458662033081055 
v 228.70977783203125 1398.381103515625 2.8449816703796387 
v 225.27630615234375 1401.655029296875 2.91618275642395 
v 230.030029296875 1397.10205078125 2.8440968990325928 
v 230.1240234375 1397.010009765625 2.8440377712249756 
v 225.37030029296875 1401.56396484375 2.916123390197754 
v 220.59771728515625 1406.2451171875 2.8501944541931152 
v 221.05889892578125 1405.798095703125 2.8500466346740723 
v 221.52008056640625 1405.35107421875 2.8498990535736084 
v 230.21807861328125 1396.9189453125 2.8439784049987793 
v 230.440673828125 1396.702880859375 2.8438737392425537 
v 225.5928955078125 1401.347900390625 2.9160189628601074 
v 230.6632080078125 1396.488037109375 2.843769073486328 
v -210.1644744873047 1406.426025390625 2.850184440612793 
v -210.25779724121094 1406.3359375 2.850189447402954 
v -210.22019958496094 1406.318115234375 2.91922664642334 
v -210.3135223388672 1406.22705078125 2.919231414794922 
v -210.27598571777344 1406.208984375 2.9882686138153076 
v -210.7747039794922 1405.780029296875 2.919083833694458 
v -213.7095184326172 1402.93505859375 2.917067527770996 
v -214.2081756591797 1402.506103515625 2.8478827476501465 
v -217.1429901123047 1399.660888671875 2.8458662033081055 
v -218.4631805419922 1398.381103515625 2.8449816703796387 
v -215.0297088623047 1401.655029296875 2.91618275642395 
v -219.78343200683594 1397.10205078125 2.8440968990325928 
v -219.87742614746094 1397.010009765625 2.8440377712249756 
v -215.1237030029297 1401.56396484375 2.916123390197754 
v -210.3511199951172 1406.2451171875 2.8501944541931152 
v -210.8123016357422 1405.798095703125 2.8500466346740723 
v -211.2734832763672 1405.35107421875 2.8498990535736084 
v -219.9714813232422 1396.9189453125 2.8439784049987793 
v -220.19407653808594 1396.702880859375 2.8438737392425537 
v -215.34629821777344 1401.347900390625 2.9160189628601074 
v -220.41661071777344 1396.488037109375 2.843769073486328 
v 1194.2020263671875 1268.68603515625 2.8151350021362305 
v 1194.2020263671875 1268.68603515625 23.815139770507812 
v 280.92919921875 -1374.77734375 3.281761646270752 
v 288.62921142578125 -1372.760009765625 3.2379724979400635 
v -278.3901062011719 -1372.758056640625 3.2379298210144043 
v -270.6902160644531 -1374.775390625 3.2817189693450928 
v -270.6976623535156 -1374.7734375 3.2816762924194336 
v -270.6841125488281 -1374.77685546875 3.281989574432373 
v -270.6915588378906 -1374.7750244140625 3.281946897506714 
v -270.6855163574219 -1374.7764892578125 3.2822177410125732 
v -270.6825866699219 -1374.77734375 3.281761646270752 
v -278.3825988769531 -1372.760009765625 3.2379724979400635 
v 288.63671875 -1372.758056640625 3.2379298210144043 
v 280.93682861328125 -1374.775390625 3.2817189693450928 
v 280.94427490234375 -1374.7734375 3.2816762924194336 
v 280.93072509765625 -1374.77685546875 3.281989574432373 
v 280.93817138671875 -1374.7750244140625 3.281946897506714 
v 280.93212890625 -1374.7764892578125 3.2822177410125732 
vn -0.24622556567192078 -0.9043408632278442 -0.34862664341926575 
vn -0.24620525538921356 -0.894537627696991 -0.37307560443878174 
vn -0.2370539903640747 -0.8883446455001831 -0.3932546079158783 
vn 0.24221257865428925 0.8869520425796509 0.3932546079158783 
vn 0.24622556567192078 0.9043408632278442 0.34862664341926575 
vn 0.24043606221675873 0.8961055278778076 0.37307560443878174 
vn 0.2407001107931137 -0.8873636722564697 -0.3932546079158783 
vn 0.24620525538921356 -0.894537627696991 -0.37307560443878174 
vn 0.24622556567192078 -0.9043408632278442 -0.34862664341926575 
vn -0.24622556567192078 0.9043408632278442 0.34862664341926575 
vn -0.24221257865428925 0.8869520425796509 0.3932546079158783 
vn -0.2440759837627411 0.8951209187507629 0.37307560443878174 
vn -0.6058553457260132 -0.6258722543716431 -0.4911448359489441 
vn -0.6058553457260132 -0.6258722543716431 -0.4911448359489441 
vn -0.6058553457260132 -0.6258722543716431 -0.4911448359489441 
vn -0.6058553457260132 -0.6258722543716431 -0.4911448359489441 
vn -0.6058553457260132 -0.6258722543716431 -0.4911448359489441 
vn -0.6058553457260132 -0.6258722543716431 -0.4911448359489441 
vn -0.6058553457260132 -0.6258722543716431 -0.4911448359489441 
vn -0.6029710173606873 -0.6256629824638367 -0.4949462115764618 
vn -0.6058553457260132 -0.6258722543716431 -0.4911448359489441 
vn -0.6058553457260132 -0.6258722543716431 -0.4911448359489441 
vn -0.6058553457260132 -0.6258722543716431 -0.4911448359489441 
vn -0.6058553457260132 -0.6258722543716431 -0.4911448359489441 
vn -0.6058553457260132 -0.6258722543716431 -0.4911448359489441 
vn -0.6058553457260132 -0.6258722543716431 -0.4911448359489441 
vn -0.6058553457260132 -0.6258722543716431 -0.4911448359489441 
vn -0.6058553457260132 -0.6258722543716431 -0.4911448359489441 
vn -0.6029710173606873 -0.6256629824638367 -0.4949462115764618 
vn -0.6058553457260132 -0.6258722543716431 -0.4911448359489441 
vn -0.6058553457260132 -0.6258722543716431 -0.4911448359489441 
vn -0.6058553457260132 -0.6258722543716431 -0.4911448359489441 
vn -0.6058553457260132 -0.6258722543716431 -0.4911448359489441 
vn 0.6085616946220398 -0.6232410669326782 -0.4911448359489441 
vn 0.6085616946220398 -0.6232410669326782 -0.4911448359489441 
vn 0.6085616946220398 -0.6232410669326782 -0.4911448359489441 
vn 0.6085616946220398 -0.6232410669326782 -0.4911448359489441 
vn 0.6085616946220398 -0.6232410669326782 -0.4911448359489441 
vn 0.6085616946220398 -0.6232410669326782 -0.4911448359489441 
vn 0.6085616946220398 -0.6232410669326782 -0.4911448359489441 
vn 0.6056839823722839 -0.6230370402336121 -0.4949462115764618 
vn 0.6085616946220398 -0.6232410669326782 -0.4911448359489441 
vn 0.6085616946220398 -0.6232410669326782 -0.4911448359489441 
vn 0.6085616946220398 -0.6232410669326782 -0.4911448359489441 
vn 0.6085616946220398 -0.6232410669326782 -0.4911448359489441 
vn 0.6085616946220398 -0.6232410669326782 -0.4911448359489441 
vn 0.6085616946220398 -0.6232410669326782 -0.4911448359489441 
vn 0.6085616946220398 -0.6232410669326782 -0.4911448359489441 
vn 0.6085616946220398 -0.6232410669326782 -0.4911448359489441 
vn 0.6056839823722839 -0.6230370402336121 -0.4949462115764618 
vn 0.6085616946220398 -0.6232410669326782 -0.4911448359489441 
vn 0.6085616946220398 -0.6232410669326782 -0.4911448359489441 
vn 0.6085616946220398 -0.6232410669326782 -0.4911448359489441 
vn 0.6085616946220398 -0.6232410669326782 -0.4911448359489441 
vn 0 0 0 
vn 0 0 0 
vn 0 0 0 
vn 0 0 0 
vn 0 0 0 
vn 0 0 0 
vn 0 0 0 
vn 0 0 0 
vn 0 0 0 
vn 0 0 0 
vn 0 0 0 
vn 0 0 0 
vn 0 0 0 
vn 0 0 0 
vn 0 0 0 
vn 0 0 0 
vn 0 0 0 
vn 0 0 0 
s on 
f 1//1 2//2 3//3 
f 2//2 3//3 3//3 
f 3//3 3//3 4//4 
f 3//3 4//4 4//4 
f 4//4 4//4 5//5 
f 4//4 6//6 5//5 
f 5//5 6//6 6//6 
f 6//6 7//7 6//6 
f 6//6 7//7 7//7 
f 7//7 8//8 7//7 
f 7//7 8//8 9//9 
f 8//8 9//9 9//9 
f 9//9 9//9 10//10 
f 9//9 10//10 10//10 
f 10//10 10//10 11//11 
f 10//10 12//12 11//11 
f 11//11 12//12 12//12 
f 12//12 13//13 12//12 
f 12//12 13//13 13//13 
f 13//13 14//14 13//13 
f 13//13 14//14 15//15 
f 14//14 16//16 15//15 
f 15//15 16//16 17//17 
f 16//16 18//18 17//17 
f 17//17 18//18 19//19 
f 18//18 20//20 19//19 
f 19//19 20//20 19//19 
f 20//20 21//21 19//19 
f 19//19 21//21 19//19 
f 21//21 22//22 19//19 
f 19//19 22//22 23//23 
f 22//22 24//24 23//23 
f 23//23 24//24 23//23 
f 24//24 25//25 23//23 
f 23//23 25//25 23//23 
f 25//25 26//26 23//23 
f 23//23 26//26 23//23 
f 26//26 17//17 23//23 
f 23//23 17//17 19//19 
f 17//17 19//19 19//19 
f 19//19 19//19 14//14 
f 19//19 14//14 14//14 
f 14//14 14//14 16//16 
f 14//14 27//27 16//16 
f 16//16 27//27 16//16 
f 27//27 28//28 16//16 
f 16//16 28//28 18//18 
f 28//28 29//29 18//18 
f 18//18 29//29 20//20 
f 29//29 20//20 20//20 
f 20//20 20//20 25//25 
f 20//20 25//25 25//25 
f 25//25 25//25 26//26 
f 25//25 30//30 26//26 
f 26//26 30//30 26//26 
f 30//30 31//31 26//26 
f 26//26 31//31 32//32 
f 31//31 33//33 32//32 
f 32//32 33//33 33//33 
f 33//33 17//17 33//33 
f 33//33 17//17 17//17 
f 17//17 26//26 17//17 
f 17//17 26//26 32//32 
f 26//26 32//32 32//32 
f 32//32 32//32 34//34 
f 32//32 34//34 34//34 
f 34//34 34//34 35//35 
f 34//34 36//36 35//35 
f 35//35 36//36 37//37 
f 36//36 38//38 37//37 
f 37//37 38//38 39//39 
f 38//38 40//40 39//39 
f 39//39 40//40 41//41 
f 40//40 40//40 41//41 
f 41//41 40//40 42//42 
f 40//40 40//40 42//42 
f 42//42 40//40 43//43 
f 40//40 44//44 43//43 
f 43//43 44//44 45//45 
f 44//44 44//44 45//45 
f 45//45 44//44 46//46 
f 44//44 44//44 46//46 
f 46//46 44//44 47//47 
f 44//44 44//44 47//47 
f 47//47 44//44 38//38 
f 44//44 40//40 38//38 
f 38//38 40//40 40//40 
f 40//40 35//35 40//40 
f 40//40 35//35 35//35 
f 35//35 37//37 35//35 
f 35//35 37//37 48//48 
f 37//37 37//37 48//48 
f 48//48 37//37 49//49 
f 37//37 39//39 49//49 
f 49//49 39//39 50//50 
f 39//39 41//41 50//50 
f 50//50 41//41 41//41 
f 41//41 46//46 41//41 
f 41//41 46//46 46//46 
f 46//46 47//47 46//46 
f 46//46 47//47 51//51 
f 47//47 47//47 51//51 
f 51//51 47//47 52//52 
f 47//47 53//53 52//52 
f 52//52 53//53 54//54 
f 53//53 54//54 54//54 
f 54//54 54//54 53//53 
f 54//54 53//53 53//53 
f 53//53 53//53 38//38 
f 53//53 47//47 38//38 

