mtllib model_3.mtl
o model_3
v 220.41107177734375 1406.426025390625 2.850184440612793 
v 220.466796875 1406.318115234375 2.91922664642334 
v 220.50439453125 1406.3359375 2.850189447402954 
v 220.56011962890625 1406.22705078125 2.919231414794922 
v 220.59771728515625 1406.2451171875 2.8501944541931152 
v 221.05889892578125 1405.798095703125 2.8500466346740723 
v 221.02130126953125 1405.780029296875 2.919083833694458 
v 221.52008056640625 1405.35107421875 2.8498990535736084 
v 224.45477294921875 1402.506103515625 2.8478827476501465 
v 223.95611572265625 1402.93505859375 2.917067527770996 
v 227.38958740234375 1399.660888671875 2.8458662033081055 
v 228.70977783203125 1398.381103515625 2.8449816703796387 
v 225.27630615234375 1401.655029296875 2.91618275642395 
v 230.030029296875 1397.10205078125 2.8440968990325928 
v 230.1240234375 1397.010009765625 2.8440377712249756 
v 225.37030029296875 1401.56396484375 2.916123390197754 
v 230.21807861328125 1396.9189453125 2.8439784049987793 
v 230.440673828125 1396.702880859375 2.8438737392425537 
v 225.5928955078125 1401.347900390625 2.9160189628601074 
v 230.6632080078125 1396.488037109375 2.843769073486328 
v 220.5225830078125 1406.208984375 2.9882686138153076 
v -210.1644744873047 1406.426025390625 2.850184440612793 
v -210.25779724121094 1406.3359375 2.850189447402954 
v -210.22019958496094 1406.318115234375 2.91922664642334 
v -210.3135223388672 1406.22705078125 2.919231414794922 
v -210.27598571777344 1406.208984375 2.9882686138153076 
v -210.7747039794922 1405.780029296875 2.919083833694458 
v -213.7095184326172 1402.93505859375 2.917067527770996 
v -214.2081756591797 1402.506103515625 2.8478827476501465 
v -217.1429901123047 1399.660888671875 2.8458662033081055 
v -218.4631805419922 1398.381103515625 2.8449816703796387 
v -215.0297088623047 1401.655029296875 2.91618275642395 
v -219.78343200683594 1397.10205078125 2.8440968990325928 
v -219.87742614746094 1397.010009765625 2.8440377712249756 
v -215.1237030029297 1401.56396484375 2.916123390197754 
v -210.3511199951172 1406.2451171875 2.8501944541931152 
v -210.8123016357422 1405.798095703125 2.8500466346740723 
v -211.2734832763672 1405.35107421875 2.8498990535736084 
v -219.9714813232422 1396.9189453125 2.8439784049987793 
v -220.19407653808594 1396.702880859375 2.8438737392425537 
v -215.34629821777344 1401.347900390625 2.9160189628601074 
v -220.41661071777344 1396.488037109375 2.843769073486328 
vn 0.6085616946220398 0.6232410669326782 0.4911448359489441 
vn 0.6085616946220398 0.6232410669326782 0.4911448359489441 
vn 0.6085616946220398 0.6232410669326782 0.4911448359489441 
vn 0.6085616946220398 0.6232410669326782 0.4911448359489441 
vn 0.6085616946220398 0.6232410669326782 0.4911448359489441 
vn 0.6085616946220398 0.6232410669326782 0.4911448359489441 
vn 0.6085616946220398 0.6232410669326782 0.4911448359489441 
vn 0.6063716411590576 0.622367799282074 0.4949462115764618 
vn 0.6063716411590576 0.622367799282074 0.4949462115764618 
vn 0.6085616946220398 0.6232410669326782 0.4911448359489441 
vn 0.6085616946220398 0.6232410669326782 0.4911448359489441 
vn 0.6085616946220398 0.6232410669326782 0.4911448359489441 
vn 0.6085616946220398 0.6232410669326782 0.4911448359489441 
vn 0.6085616946220398 0.6232410669326782 0.4911448359489441 
vn 0.6085616946220398 0.6232410669326782 0.4911448359489441 
vn 0.6085616946220398 0.6232410669326782 0.4911448359489441 
vn 0.6085616946220398 0.6232410669326782 0.4911448359489441 
vn 0.6085616946220398 0.6232410669326782 0.4911448359489441 
vn 0.6085616946220398 0.6232410669326782 0.4911448359489441 
vn 0.6085616946220398 0.6232410669326782 0.4911448359489441 
vn 0.6085616946220398 0.6232410669326782 0.4911448359489441 
vn -0.6058553457260132 0.6258722543716431 0.4911448359489441 
vn -0.6058553457260132 0.6258722543716431 0.4911448359489441 
vn -0.6058553457260132 0.6258722543716431 0.4911448359489441 
vn -0.6058553457260132 0.6258722543716431 0.4911448359489441 
vn -0.6058553457260132 0.6258722543716431 0.4911448359489441 
vn -0.6058553457260132 0.6258722543716431 0.4911448359489441 
vn -0.6058553457260132 0.6258722543716431 0.4911448359489441 
vn -0.6063716411590576 0.622367799282074 0.4949462115764618 
vn -0.6058553457260132 0.6258722543716431 0.4911448359489441 
vn -0.6058553457260132 0.6258722543716431 0.4911448359489441 
vn -0.6058553457260132 0.6258722543716431 0.4911448359489441 
vn -0.6058553457260132 0.6258722543716431 0.4911448359489441 
vn -0.6058553457260132 0.6258722543716431 0.4911448359489441 
vn -0.6058553457260132 0.6258722543716431 0.4911448359489441 
vn -0.6058553457260132 0.6258722543716431 0.4911448359489441 
vn -0.6058553457260132 0.6258722543716431 0.4911448359489441 
vn -0.6063716411590576 0.622367799282074 0.4949462115764618 
vn -0.6058553457260132 0.6258722543716431 0.4911448359489441 
vn -0.6058553457260132 0.6258722543716431 0.4911448359489441 
vn -0.6058553457260132 0.6258722543716431 0.4911448359489441 
vn -0.6058553457260132 0.6258722543716431 0.4911448359489441 
s on 
f 1//1 2//2 3//3 
f 2//2 4//4 3//3 
f 3//3 4//4 5//5 
f 4//4 4//4 5//5 
f 5//5 4//4 6//6 
f 4//4 7//7 6//6 
f 6//6 7//7 8//8 
f 7//7 7//7 8//8 
f 8//8 7//7 9//9 
f 7//7 10//10 9//9 
f 9//9 10//10 11//11 
f 10//10 10//10 11//11 
f 11//11 10//10 12//12 
f 10//10 13//13 12//12 
f 12//12 13//13 14//14 
f 13//13 13//13 14//14 
f 14//14 13//13 15//15 
f 13//13 16//16 15//15 
f 15//15 16//16 17//17 
f 16//16 16//16 17//17 
f 17//17 16//16 18//18 
f 16//16 19//19 18//18 
f 18//18 19//19 20//20 
f 19//19 20//20 20//20 
f 20//20 20//20 2//2 
f 20//20 2//2 2//2 
f 2//2 2//2 4//4 
f 2//2 21//21 4//4 
f 4//4 21//21 7//7 
f 21//21 21//21 7//7 
f 7//7 21//21 10//10 
f 21//21 21//21 10//10 
f 10//10 21//21 13//13 
f 21//21 21//21 13//13 
f 13//13 21//21 16//16 
f 21//21 19//19 16//16 
f 16//16 19//19 19//19 
f 19//19 22//22 19//19 
f 19//19 22//22 22//22 
f 22//22 23//23 22//22 
f 22//22 23//23 24//24 
f 23//23 25//25 24//24 
f 24//24 25//25 26//26 
f 25//25 27//27 26//26 
f 26//26 27//27 28//28 
f 27//27 29//29 28//28 
f 28//28 29//29 28//28 
f 29//29 30//30 28//28 
f 28//28 30//30 28//28 
f 30//30 31//31 28//28 
f 28//28 31//31 32//32 
f 31//31 33//33 32//32 
f 32//32 33//33 32//32 
f 33//33 34//34 32//32 
f 32//32 34//34 32//32 
f 34//34 35//35 32//32 
f 32//32 35//35 32//32 
f 35//35 26//26 32//32 
f 32//32 26//26 28//28 
f 26//26 28//28 28//28 
f 28//28 28//28 23//23 
f 28//28 23//23 23//23 
f 23//23 23//23 25//25 
f 23//23 36//36 25//25 
f 25//25 36//36 25//25 
f 36//36 37//37 25//25 
f 25//25 37//37 27//27 
f 37//37 38//38 27//27 
f 27//27 38//38 29//29 
f 38//38 29//29 29//29 
f 29//29 29//29 34//34 
f 29//29 34//34 34//34 
f 34//34 34//34 35//35 
f 34//34 39//39 35//35 
f 35//35 39//39 35//35 
f 39//39 40//40 35//35 
f 35//35 40//40 41//41 
f 40//40 42//42 41//41 
f 41//41 42//42 42//42 
f 42//42 26//26 42//42 
f 42//42 26//26 26//26 
f 26//26 35//35 26//26 
f 26//26 35//35 41//41 

